<?xml version="1.0" encoding="UTF-8" standalone="no"?>
<svg
   xmlns:dc="http://purl.org/dc/elements/1.1/"
   xmlns:cc="http://creativecommons.org/ns#"
   xmlns:rdf="http://www.w3.org/1999/02/22-rdf-syntax-ns#"
   xmlns:svg="http://www.w3.org/2000/svg"
   xmlns="http://www.w3.org/2000/svg"
   viewBox="0 0 380.69333 352.94666"
   height="185.4230858"
   width="200"
   xml:space="preserve"
   id="svg2"
   version="1.1"><metadata
     id="metadata8"><rdf:RDF><cc:Work
         rdf:about=""><dc:format>image/svg+xml</dc:format><dc:type
           rdf:resource="http://purl.org/dc/dcmitype/StillImage" /></cc:Work></rdf:RDF></metadata><defs
     id="defs6" /><g
     transform="matrix(1.3333333,0,0,-1.3333333,0,352.94667)"
     id="g10"><g
       transform="scale(0.1)"
       id="g12"><path
         id="path14"
         style="fill:#231f20;fill-opacity:1;fill-rule:nonzero;stroke:none"
         d="M 331.152,909.93 V 31.8984 h 37.875 c 33.34,0 59.825,9.4727 79.657,28.5235 19.746,19.0195 29.597,44.7191 29.597,77.0981 v 690.519 c 0,29.293 -5.636,50.16 -17.226,62.992 -11.438,12.61 -29.36,18.899 -53.95,18.899 z m 0,846.25 V 941.879 h 62.84 c 28.465,0 49.637,7.019 63.582,21.41 13.778,14.051 20.707,37.791 20.707,70.951 V 1652 c 0,40.25 -7.136,67.77 -21.355,82.33 -14.285,14.51 -41.926,21.85 -83.02,21.85 z M 88.2617,29.5 V 1758.52 H 12.6484 C 4.20313,1764.14 0,1769.18 0,1774.02 c 0,3.86 4.3125,8.38 13.0352,14.01 H 361.309 c 107.015,0 194.574,-37.19 262.558,-111.54 68.098,-74.49 102.219,-178.99 102.219,-313.48 0,-82.45 -11.793,-153.41 -35.055,-213.28 C 667.688,1089.99 631.621,1039.9 582.582,999.641 551.777,974.23 505.168,950.059 442.75,927.121 507.566,903.332 555.426,879.16 586.313,854.609 635.359,814.102 672.551,765.059 697.836,707.5 723.082,649.969 735.891,579.16 735.891,495.141 735.891,386.359 717.359,290 680.328,205.871 655.145,147.262 613.828,98.1211 556.254,59 498.855,19.6406 429.941,0 349.574,0 H 13.0352 C 4.3125,5.28125 0,10.2813 0,14.6406 0,19.2109 4.20313,24.1211 12.6484,29.5 h 75.6133" /><path
         id="path16"
         style="fill:#231f20;fill-opacity:1;fill-rule:nonzero;stroke:none"
         d="m 892.25,1758.52 h -69.297 c -3.883,0 -7.187,1.47 -10.039,4.27 -2.699,2.77 -4.062,5.94 -4.062,10.01 0,4.72 1.414,8.41 4.121,11.12 2.793,2.74 6.097,4.16 10.039,4.16 H 1143.42 L 1258.5,694.102 1401.41,1788.08 h 326.05 c 4.8,0 8.73,-1.42 11.92,-4.16 3.15,-2.71 4.68,-6.04 4.68,-9.9 0,-4.88 -1.53,-8.46 -4.68,-11.23 -3.19,-2.8 -7.12,-4.27 -11.92,-4.27 h -77.3 V 29.5 h 77.51 c 2.34,0 3.93,-0.8008 4.79,-2.2891 2.34,-3.8398 3.52,-8.4218 3.52,-13.582 0,-4.51952 -0.75,-7.92968 -2.35,-10.27734 C 1731.93,1.12891 1730.01,0 1727.67,0 h -392.96 c -3.25,0 -6.25,1.33984 -9.07,3.87891 -2.81,2.73047 -4.12,6.40239 -4.12,10.70309 0,4.6289 1.31,8.2071 4.12,10.8164 2.82,2.6602 5.82,4.1016 9.07,4.1016 h 82.46 V 1681.65 L 1210.26,41.2617 C 1206.97,20.0703 1204.21,7.92969 1201.82,4.69141 1199.35,1.64844 1195.74,0 1190.95,0 h -78.06 c -4.86,0 -8.4,1.64844 -10.79,4.73828 -2.4,3.19141 -4.88,15.48052 -7.21,36.80082 L 924.145,1665 V 157.02 c 0,-41.282 4.14,-70.2387 12.433,-86.9106 8.285,-16.5977 22.848,-28.5703 43.387,-35.7774 L 1033.49,29.5 c 3.94,-2.3984 5.94,-7.3008 5.94,-14.2109 0,-6.33988 -0.95,-10.48832 -2.92,-12.36722 C 1034.47,0.910156 1029.69,0 1021.84,0 H 814.488 c -3.183,0 -5.695,1.01172 -7.613,3.19922 -1.965,2.17969 -2.945,5.0625 -2.945,8.72268 0,3.6797 0.98,6.3984 2.902,8.2695 1.879,1.7969 8.543,4.8789 20.102,9.3086 23.668,9.4219 39.683,21.6719 48.207,36.832 11.39,20.6172 17.109,49.949 17.109,88.18 V 1758.52" /><path
         id="path18"
         style="fill:#231f20;fill-opacity:1;fill-rule:nonzero;stroke:none"
         d="m 1883.45,1758.52 h -70.38 c -3.95,0 -7.25,1.47 -9.48,4.27 -2.46,2.77 -3.51,5.94 -3.51,10.01 0,4.72 1.05,8.41 3.51,11.12 2.35,2.74 5.53,4.16 9.48,4.16 h 384.88 c 3.88,0 7.23,-1.42 9.94,-4.16 2.77,-2.71 4.22,-6.04 4.22,-9.9 0,-4.88 -1.45,-8.46 -4.22,-11.23 -2.75,-2.8 -6.06,-4.27 -10.11,-4.27 h -71.56 V 29.5 h 71.46 c 8.08,-5.3789 11.93,-10.2891 11.93,-14.918 0,-5.15231 -3.85,-10.10153 -11.83,-14.582 h -394.52 c -8.71,5.28125 -12.99,10.2813 -12.99,14.582 0,4.6289 4.28,9.5391 12.99,14.918 h 80.19 v 1729.02" /><path
         id="path20"
         style="fill:#1d5fad;fill-opacity:1;fill-rule:nonzero;stroke:none"
         d="m 1876.93,1940.33 c 43.2,10.59 155.22,62.4 189.96,61.13 -20.41,-33.98 -325.86,-400.48 -325.86,-400.48 0,0 309.14,342.28 376.24,336.62 99.1,-8.36 239.6,-570.85 273.82,-712.55 -164.98,682.9 -202.5,762.06 -168.41,753.17 78.53,-20.58 632.52,-204.4 632.52,-204.4 l -630.04,238.52 c 29.59,39.18 303.54,243.07 419.4,314.41 -193.52,-119.18 -381.31,-214.52 -421.58,-222.8 -28.64,-4.38 -16.64,24.81 -16.64,24.81 1.68,39.85 162.52,433.85 198.58,518.32 -22.65,-43.97 -221.89,-466.61 -244.13,-505.32 l 13.59,229.95 -44.2,-219.3 c -0.17,-0.48 -0.26,-0.79 -0.35,-1.23 -6.7,-21.89 -21.63,-24.2 -28.76,-23.88 -54.65,8.3 -242.3,144.5 -371.63,242.84 120.55,-98.55 297.53,-238.6 306.34,-288.75 l -1020.9,350.82 c 205.89,-75.21 713.75,-273.14 1024.94,-387.42 -17.34,-36.77 -107.79,-79.97 -162.89,-104.46" /></g></g></svg>